<svg xmlns="http://www.w3.org/2000/svg" viewBox="0 0 64 64" role="img" aria-labelledby="title">
  <title>PensionGuard AI</title>
  <defs>
    <linearGradient id="bg" x1="10" y1="8" x2="54" y2="56" gradientUnits="userSpaceOnUse">
      <stop offset="0" stop-color="#2563eb" />
      <stop offset="1" stop-color="#0f172a" />
    </linearGradient>
    <linearGradient id="coin" x1="23" y1="24" x2="42" y2="45" gradientUnits="userSpaceOnUse">
      <stop offset="0" stop-color="#fde68a" />
      <stop offset="1" stop-color="#f59e0b" />
    </linearGradient>
  </defs>

  <rect width="64" height="64" rx="18" fill="url(#bg)" />
  <path
    d="M32 10c5.4 5.2 12 7.3 18 8.3v13.4c0 10.8-7 18.8-18 22.3-11-3.5-18-11.5-18-22.3V18.3c6-.9 12.6-3.1 18-8.3z"
    fill="#eff6ff"
  />
  <path
    d="M32 14.2c4.1 3.5 9.3 5.4 14.4 6.3v11.1c0 8.6-5.4 15-14.4 18-9-3-14.4-9.4-14.4-18V20.5c5.1-.9 10.3-2.8 14.4-6.3z"
    fill="#17336f"
  />
  <circle cx="32" cy="35" r="11.5" fill="url(#coin)" stroke="#fef3c7" stroke-width="1.5" />
  <path
    d="M28.8 39.6V29.8h4.9c2.9 0 4.6 1.5 4.6 4s-1.7 4-4.6 4h-2.3v1.8zM31.4 35.7h2c1.5 0 2.3-.7 2.3-1.9s-.8-1.9-2.3-1.9h-2z"
    fill="#17336f"
  />
  <path
    d="M23 23.3l3 3 6-6"
    fill="none"
    stroke="#4ade80"
    stroke-linecap="round"
    stroke-linejoin="round"
    stroke-width="3.5"
  />
</svg>
